<?xml version="1.0" encoding="UTF-8"?>
<!DOCTYPE svg PUBLIC "-//W3C//DTD SVG 1.1//EN" "http://www.w3.org/Graphics/SVG/1.1/DTD/svg11.dtd">
<svg width="225mm" height="134mm" viewBox="0 0 22500 13400" version="1.1" baseProfile="tiny" xmlns="http://www.w3.org/2000/svg" stroke-width="28.222" stroke-linejoin="round" xml:space="preserve">
 <path fill="none" stroke="rgb(179,179,179)" stroke-linejoin="round" d="M 11181,11495 L 2187,11495 2187,1648 20175,1648 20175,11495 11181,11495 Z"/>
 <path fill="none" stroke="rgb(179,179,179)" stroke-linejoin="round" d="M 20175,11494 L 2187,11494"/>
 <path fill="none" stroke="rgb(179,179,179)" stroke-linejoin="round" d="M 20175,10263 L 2187,10263"/>
 <path fill="none" stroke="rgb(179,179,179)" stroke-linejoin="round" d="M 20175,9032 L 2187,9032"/>
 <path fill="none" stroke="rgb(179,179,179)" stroke-linejoin="round" d="M 20175,7801 L 2187,7801"/>
 <path fill="none" stroke="rgb(179,179,179)" stroke-linejoin="round" d="M 20175,6571 L 2187,6571"/>
 <path fill="none" stroke="rgb(179,179,179)" stroke-linejoin="round" d="M 20175,5340 L 2187,5340"/>
 <path fill="none" stroke="rgb(179,179,179)" stroke-linejoin="round" d="M 20175,4109 L 2187,4109"/>
 <path fill="none" stroke="rgb(179,179,179)" stroke-linejoin="round" d="M 20175,2878 L 2187,2878"/>
 <path fill="none" stroke="rgb(179,179,179)" stroke-linejoin="round" d="M 20175,1647 L 2187,1647"/>
 <path fill="none" stroke="rgb(179,179,179)" stroke-linejoin="round" d="M 2187,11644 L 2187,11494"/>
 <path fill="none" stroke="rgb(179,179,179)" stroke-linejoin="round" d="M 2187,11644 L 2187,11494"/>
 <path fill="none" stroke="rgb(179,179,179)" stroke-linejoin="round" d="M 8183,11644 L 8183,11494"/>
 <path fill="none" stroke="rgb(179,179,179)" stroke-linejoin="round" d="M 8183,11644 L 8183,11494"/>
 <path fill="none" stroke="rgb(179,179,179)" stroke-linejoin="round" d="M 14178,11644 L 14178,11494"/>
 <path fill="none" stroke="rgb(179,179,179)" stroke-linejoin="round" d="M 14178,11644 L 14178,11494"/>
 <path fill="none" stroke="rgb(179,179,179)" stroke-linejoin="round" d="M 20175,11644 L 20175,11494"/>
 <path fill="none" stroke="rgb(179,179,179)" stroke-linejoin="round" d="M 20175,11644 L 20175,11494"/>
 <path fill="none" stroke="rgb(179,179,179)" stroke-linejoin="round" d="M 2187,11494 L 20175,11494"/>
 <path fill="none" stroke="rgb(179,179,179)" stroke-linejoin="round" d="M 2037,11494 L 2187,11494"/>
 <path fill="none" stroke="rgb(179,179,179)" stroke-linejoin="round" d="M 2037,11494 L 2187,11494"/>
 <path fill="none" stroke="rgb(179,179,179)" stroke-linejoin="round" d="M 2037,10263 L 2187,10263"/>
 <path fill="none" stroke="rgb(179,179,179)" stroke-linejoin="round" d="M 2037,10263 L 2187,10263"/>
 <path fill="none" stroke="rgb(179,179,179)" stroke-linejoin="round" d="M 2037,9032 L 2187,9032"/>
 <path fill="none" stroke="rgb(179,179,179)" stroke-linejoin="round" d="M 2037,9032 L 2187,9032"/>
 <path fill="none" stroke="rgb(179,179,179)" stroke-linejoin="round" d="M 2037,7801 L 2187,7801"/>
 <path fill="none" stroke="rgb(179,179,179)" stroke-linejoin="round" d="M 2037,7801 L 2187,7801"/>
 <path fill="none" stroke="rgb(179,179,179)" stroke-linejoin="round" d="M 2037,6571 L 2187,6571"/>
 <path fill="none" stroke="rgb(179,179,179)" stroke-linejoin="round" d="M 2037,6571 L 2187,6571"/>
 <path fill="none" stroke="rgb(179,179,179)" stroke-linejoin="round" d="M 2037,5340 L 2187,5340"/>
 <path fill="none" stroke="rgb(179,179,179)" stroke-linejoin="round" d="M 2037,5340 L 2187,5340"/>
 <path fill="none" stroke="rgb(179,179,179)" stroke-linejoin="round" d="M 2037,4109 L 2187,4109"/>
 <path fill="none" stroke="rgb(179,179,179)" stroke-linejoin="round" d="M 2037,4109 L 2187,4109"/>
 <path fill="none" stroke="rgb(179,179,179)" stroke-linejoin="round" d="M 2037,2878 L 2187,2878"/>
 <path fill="none" stroke="rgb(179,179,179)" stroke-linejoin="round" d="M 2037,2878 L 2187,2878"/>
 <path fill="none" stroke="rgb(179,179,179)" stroke-linejoin="round" d="M 2037,1647 L 2187,1647"/>
 <path fill="none" stroke="rgb(179,179,179)" stroke-linejoin="round" d="M 2037,1647 L 2187,1647"/>
 <path fill="none" stroke="rgb(179,179,179)" stroke-linejoin="round" d="M 2187,11494 L 2187,1647"/>
 <path fill="rgb(0,69,134)" stroke="none" d="M 15178,11494 L 17176,11494 17176,8096 15178,8096 15178,11494 Z"/>
 <path fill="rgb(0,69,134)" stroke="none" d="M 9182,11494 L 11181,11494 11181,8421 9182,8421 9182,11494 Z"/>
 <path fill="rgb(0,69,134)" stroke="none" d="M 3186,11494 L 5185,11494 5185,7281 3186,7281 3186,11494 Z"/>
 <path fill="rgb(255,66,14)" stroke="none" d="M 17176,11494 L 19175,11494 19175,6081 17176,6081 17176,11494 Z"/>
 <path fill="rgb(255,66,14)" stroke="none" d="M 11181,11494 L 13179,11494 13179,2891 11181,2891 11181,11494 Z"/>
 <path fill="rgb(255,66,14)" stroke="none" d="M 5185,11494 L 7183,11494 7183,7281 5185,7281 5185,11494 Z"/>
 <text class="TextShape"><tspan class="TextParagraph" font-family="Liberation Sans, sans-serif" font-size="353px" font-weight="400"><tspan class="TextPosition" x="4629" y="12062"><tspan fill="rgb(0,0,0)" stroke="none">Octane</tspan></tspan></tspan></text>
 <text class="TextShape"><tspan class="TextParagraph" font-family="Liberation Sans, sans-serif" font-size="353px" font-weight="400"><tspan class="TextPosition" x="8905" y="12062"><tspan fill="rgb(0,0,0)" stroke="none">Mochitest-plain dom/html/test</tspan></tspan></tspan></text>
 <text class="TextShape"><tspan class="TextParagraph" font-family="Liberation Sans, sans-serif" font-size="353px" font-weight="400"><tspan class="TextPosition" x="15192" y="12062"><tspan fill="rgb(0,0,0)" stroke="none">Reftest layout/reftests/svg</tspan></tspan></tspan></text>
 <text class="TextShape"><tspan class="TextParagraph" font-family="Liberation Sans, sans-serif" font-size="353px" font-weight="400"><tspan class="TextPosition" x="1752" y="11615"><tspan fill="rgb(0,0,0)" stroke="none">0</tspan></tspan></tspan></text>
 <text class="TextShape"><tspan class="TextParagraph" font-family="Liberation Sans, sans-serif" font-size="353px" font-weight="400"><tspan class="TextPosition" x="1461" y="10384"><tspan fill="rgb(0,0,0)" stroke="none">0.5</tspan></tspan></tspan></text>
 <text class="TextShape"><tspan class="TextParagraph" font-family="Liberation Sans, sans-serif" font-size="353px" font-weight="400"><tspan class="TextPosition" x="1752" y="9153"><tspan fill="rgb(0,0,0)" stroke="none">1</tspan></tspan></tspan></text>
 <text class="TextShape"><tspan class="TextParagraph" font-family="Liberation Sans, sans-serif" font-size="353px" font-weight="400"><tspan class="TextPosition" x="1461" y="7922"><tspan fill="rgb(0,0,0)" stroke="none">1.5</tspan></tspan></tspan></text>
 <text class="TextShape"><tspan class="TextParagraph" font-family="Liberation Sans, sans-serif" font-size="353px" font-weight="400"><tspan class="TextPosition" x="1752" y="6691"><tspan fill="rgb(0,0,0)" stroke="none">2</tspan></tspan></tspan></text>
 <text class="TextShape"><tspan class="TextParagraph" font-family="Liberation Sans, sans-serif" font-size="353px" font-weight="400"><tspan class="TextPosition" x="1461" y="5460"><tspan fill="rgb(0,0,0)" stroke="none">2.5</tspan></tspan></tspan></text>
 <text class="TextShape"><tspan class="TextParagraph" font-family="Liberation Sans, sans-serif" font-size="353px" font-weight="400"><tspan class="TextPosition" x="1752" y="4229"><tspan fill="rgb(0,0,0)" stroke="none">3</tspan></tspan></tspan></text>
 <text class="TextShape"><tspan class="TextParagraph" font-family="Liberation Sans, sans-serif" font-size="353px" font-weight="400"><tspan class="TextPosition" x="1461" y="2998"><tspan fill="rgb(0,0,0)" stroke="none">3.5</tspan></tspan></tspan></text>
 <text class="TextShape"><tspan class="TextParagraph" font-family="Liberation Sans, sans-serif" font-size="353px" font-weight="400"><tspan class="TextPosition" x="1752" y="1767"><tspan fill="rgb(0,0,0)" stroke="none">4</tspan></tspan></tspan></text>
 <text class="TextShape"><tspan class="TextParagraph" font-family="Liberation Sans, sans-serif" font-size="459px" font-weight="400"><tspan class="TextPosition" x="6734" y="938"><tspan fill="rgb(0,0,0)" stroke="none">Overhead Of rr On Selected Firefox Test Suites</tspan></tspan></tspan></text>
 <path fill="rgb(0,69,134)" stroke="none" d="M 20846,6551 L 20740,6551 20740,6340 20951,6340 20951,6551 20846,6551 Z"/>
 <path fill="rgb(255,66,14)" stroke="none" d="M 20846,7048 L 20740,7048 20740,6837 20951,6837 20951,7048 20846,7048 Z"/>
 <text class="TextShape"><tspan class="TextParagraph" font-family="Liberation Sans, sans-serif" font-size="353px" font-weight="400"><tspan class="TextPosition" x="21051" y="6565"><tspan fill="rgb(0,0,0)" stroke="none">Record</tspan></tspan></tspan></text>
 <text class="TextShape"><tspan class="TextParagraph" font-family="Liberation Sans, sans-serif" font-size="353px" font-weight="400"><tspan class="TextPosition" x="21051" y="7062"><tspan fill="rgb(0,0,0)" stroke="none">Replay</tspan></tspan></tspan></text>
 <text class="TextShape"><tspan class="TextParagraph" font-family="Liberation Sans, sans-serif" font-size="318px" font-weight="400"><tspan class="TextPosition" x="10117" y="12796"><tspan fill="rgb(0,0,0)" stroke="none">Test Suite</tspan></tspan></tspan></text>
 <text class="TextShape" transform="translate(837 9415) rotate(-90) translate(-837 -9415)"><tspan class="TextParagraph" font-family="Liberation Sans, sans-serif" font-size="318px" font-weight="400"><tspan class="TextPosition" x="837" y="9415"><tspan fill="rgb(0,0,0)" stroke="none">Overhead relative to native execution</tspan></tspan></tspan></text>
</svg>
